HIERARCHY
ROOT Hips
{
	OFFSET 0.000000 71.427986 0.000000
	CHANNELS 6 Xposition Yposition Zposition Xrotation Yrotation Zrotation
	JOINT Pelvis
	{
		OFFSET 0.000000 0.000000 0.000000
		CHANNELS 3 Xrotation Yrotation Zrotation
		JOINT LeftUpLeg
		{
			OFFSET 6.797100 -2.508499 -1.318700
			CHANNELS 3 Xrotation Yrotation Zrotation
			JOINT LeftLeg
			{
				OFFSET 0.069008 -29.241863 0.690200
				CHANNELS 3 Xrotation Yrotation Zrotation
				JOINT LeftFoot
				{
					OFFSET -0.069008 -29.568123 -0.266800
					CHANNELS 3 Xrotation Yrotation Zrotation
					JOINT LeftToeBase
					{
						OFFSET 3.145500 -8.631000 16.059900
						CHANNELS 3 Xrotation Yrotation Zrotation
						End Site
						{
							OFFSET 0.000000 18.501587 0.000000
						}
					}
				}
			}
			JOINT Left_ShortSleeve
			{
				OFFSET 0.265923 -10.480953 1.153800
				CHANNELS 3 Xrotation Yrotation Zrotation
				End Site
				{
					OFFSET 1.725763 19.823879 0.000000
				}
			}
		}
		JOINT RightUpLeg
		{
			OFFSET -6.797100 -2.508499 -1.318700
			CHANNELS 3 Xrotation Yrotation Zrotation
			JOINT RightLeg
			{
				OFFSET -0.082453 -29.241932 0.688000
				CHANNELS 3 Xrotation Yrotation Zrotation
				JOINT RightFoot
				{
					OFFSET 0.082453 -29.568058 -0.264600
					CHANNELS 3 Xrotation Yrotation Zrotation
					JOINT RightToeBase
					{
						OFFSET -3.115300 -8.682800 16.113400
						CHANNELS 3 Xrotation Yrotation Zrotation
						End Site
						{
							OFFSET 0.000000 18.567114 0.000000
						}
					}
				}
			}
			JOINT Right_ShortSleeve
			{
				OFFSET -0.265923 -10.480953 1.153800
				CHANNELS 3 Xrotation Yrotation Zrotation
				End Site
				{
					OFFSET -1.725766 19.823910 0.000000
				}
			}
		}
	}
	JOINT Spine
	{
		OFFSET 0.000000 13.368103 0.470500
		CHANNELS 3 Xrotation Yrotation Zrotation
		JOINT Spine1
		{
			OFFSET 0.147000 13.837402 0.538800
			CHANNELS 3 Xrotation Yrotation Zrotation
			JOINT Spine2
			{
				OFFSET 0.168000 16.242897 -1.435500
				CHANNELS 3 Xrotation Yrotation Zrotation
				JOINT Neck
				{
					OFFSET 0.217200 18.631500 -1.679100
					CHANNELS 3 Xrotation Yrotation Zrotation
					JOINT Head
					{
						OFFSET 0.000000 6.599396 1.385900
						CHANNELS 3 Xrotation Yrotation Zrotation
						JOINT Hat
						{
							OFFSET -0.532200 27.220596 -10.096100
							CHANNELS 3 Xrotation Yrotation Zrotation
							End Site
							{
								OFFSET 0.000000 22.029861 0.000000
							}
						}
						JOINT HairD
						{
							OFFSET -10.777400 17.437393 -1.325900
							CHANNELS 3 Xrotation Yrotation Zrotation
							JOINT HairD1
							{
								OFFSET -3.290299 -11.051193 1.062200
								CHANNELS 3 Xrotation Yrotation Zrotation
								End Site
								{
									OFFSET 0.000000 11.579437 0.000000
								}
							}
						}
						JOINT HairB
						{
							OFFSET -10.777400 17.437393 1.467900
							CHANNELS 3 Xrotation Yrotation Zrotation
							JOINT HairB1
							{
								OFFSET -1.561200 -12.956299 3.590200
								CHANNELS 3 Xrotation Yrotation Zrotation
								End Site
								{
									OFFSET 0.000000 13.534866 0.000000
								}
							}
						}
						JOINT HairA
						{
							OFFSET 9.713100 17.437393 1.467900
							CHANNELS 3 Xrotation Yrotation Zrotation
							JOINT HairA1
							{
								OFFSET 1.561200 -12.956299 3.590200
								CHANNELS 3 Xrotation Yrotation Zrotation
								End Site
								{
									OFFSET 0.000000 13.534866 0.000000
								}
							}
						}
						JOINT HairC
						{
							OFFSET 9.713100 17.437393 -1.325900
							CHANNELS 3 Xrotation Yrotation Zrotation
							JOINT HairC1
							{
								OFFSET 3.290300 -11.051193 1.062200
								CHANNELS 3 Xrotation Yrotation Zrotation
								End Site
								{
									OFFSET 0.000000 11.579437 0.000000
								}
							}
						}
					}
				}
				JOINT LeftShoulder
				{
					OFFSET 5.101800 15.108002 -2.763700
					CHANNELS 3 Xrotation Yrotation Zrotation
					JOINT LeftArm
					{
						OFFSET 9.825497 2.506317 -1.597400
						CHANNELS 3 Xrotation Yrotation Zrotation
						JOINT LeftForeArm
						{
							OFFSET 21.966244 0.000000 0.000000
							CHANNELS 3 Xrotation Yrotation Zrotation
							JOINT LeftHand
							{
								OFFSET 33.879036 0.000000 0.000000
								CHANNELS 3 Xrotation Yrotation Zrotation
								JOINT LeftHandThumb1
								{
									OFFSET 6.715286 -2.359680 3.363841
									CHANNELS 3 Xrotation Yrotation Zrotation
									JOINT LeftHandThumb2
									{
										OFFSET 2.507072 -1.447464 1.447461
										CHANNELS 3 Xrotation Yrotation Zrotation
										JOINT LeftHandThumb3
										{
											OFFSET 2.898338 -1.673355 1.673357
											CHANNELS 3 Xrotation Yrotation Zrotation
											End Site
											{
												OFFSET -0.295959 3.727692 -0.131651
											}
										}
									}
								}
								JOINT LeftHandIndex1
								{
									OFFSET 14.190811 -0.254547 3.840278
									CHANNELS 3 Xrotation Yrotation Zrotation
									JOINT LeftHandIndex2
									{
										OFFSET 3.551727 0.000000 -0.000000
										CHANNELS 3 Xrotation Yrotation Zrotation
										JOINT LeftHandIndex3
										{
											OFFSET 2.894196 0.000000 0.000000
											CHANNELS 3 Xrotation Yrotation Zrotation
											End Site
											{
												OFFSET -1.000603 2.690872 0.366626
											}
										}
									}
								}
								JOINT LeftHandMiddle1
								{
									OFFSET 13.776489 0.000000 0.000000
									CHANNELS 3 Xrotation Yrotation Zrotation
									JOINT LeftHandMiddle2
									{
										OFFSET 3.438232 0.000000 0.000000
										CHANNELS 3 Xrotation Yrotation Zrotation
										JOINT LeftHandMiddle3
										{
											OFFSET 3.691551 0.000000 0.000000
											CHANNELS 3 Xrotation Yrotation Zrotation
											End Site
											{
												OFFSET -1.082298 3.499527 0.457670
											}
										}
									}
								}
								JOINT LeftHandRing1
								{
									OFFSET 13.966164 -0.268127 -3.067488
									CHANNELS 3 Xrotation Yrotation Zrotation
									JOINT LeftHandRing2
									{
										OFFSET 3.162567 0.000000 0.000000
										CHANNELS 3 Xrotation Yrotation Zrotation
										JOINT LeftHandRing3
										{
											OFFSET 3.324348 0.000000 0.000000
											CHANNELS 3 Xrotation Yrotation Zrotation
											End Site
											{
												OFFSET -0.861900 3.184998 0.405154
											}
										}
									}
								}
								JOINT LeftHandPinky1
								{
									OFFSET 13.131393 -0.168503 -5.746925
									CHANNELS 3 Xrotation Yrotation Zrotation
									JOINT LeftHandPinky2
									{
										OFFSET 2.849182 0.000000 0.000000
										CHANNELS 3 Xrotation Yrotation Zrotation
										JOINT LeftHandPinky3
										{
											OFFSET 2.805038 0.000000 0.000000
											CHANNELS 3 Xrotation Yrotation Zrotation
											End Site
											{
												OFFSET -0.882500 2.642609 0.325652
											}
										}
									}
								}
							}
							JOINT Left_Sleeve
							{
								OFFSET 6.592125 -0.646545 0.805568
								CHANNELS 3 Xrotation Yrotation Zrotation
								End Site
								{
									OFFSET -0.000179 20.275787 -0.000000
								}
							}
						}
					}
				}
				JOINT RightShoulder
				{
					OFFSET -5.731700 15.108002 -2.763700
					CHANNELS 3 Xrotation Yrotation Zrotation
					JOINT RightArm
					{
						OFFSET -9.825497 2.506317 -1.597400
						CHANNELS 3 Xrotation Yrotation Zrotation
						JOINT RightForeArm
						{
							OFFSET -21.966242 0.000000 0.000000
							CHANNELS 3 Xrotation Yrotation Zrotation
							JOINT RightHand
							{
								OFFSET -33.879032 0.000000 0.000000
								CHANNELS 3 Xrotation Yrotation Zrotation
								JOINT RightHandThumb1
								{
									OFFSET -6.715286 -2.359680 3.363841
									CHANNELS 3 Xrotation Yrotation Zrotation
									JOINT RightHandThumb2
									{
										OFFSET -2.507072 -1.447464 1.447461
										CHANNELS 3 Xrotation Yrotation Zrotation
										JOINT RightHandThumb3
										{
											OFFSET -2.898338 -1.673355 1.673357
											CHANNELS 3 Xrotation Yrotation Zrotation
											End Site
											{
												OFFSET 0.295959 3.727692 -0.131651
											}
										}
									}
								}
								JOINT RightHandIndex1
								{
									OFFSET -14.190811 -0.254547 3.840278
									CHANNELS 3 Xrotation Yrotation Zrotation
									JOINT RightHandIndex2
									{
										OFFSET -3.551727 0.000000 -0.000000
										CHANNELS 3 Xrotation Yrotation Zrotation
										JOINT RightHandIndex3
										{
											OFFSET -2.894196 0.000000 0.000000
											CHANNELS 3 Xrotation Yrotation Zrotation
											End Site
											{
												OFFSET 1.000603 2.690872 0.366626
											}
										}
									}
								}
								JOINT RightHandMiddle1
								{
									OFFSET -13.776489 0.000000 0.000000
									CHANNELS 3 Xrotation Yrotation Zrotation
									JOINT RightHandMiddle2
									{
										OFFSET -3.438232 0.000000 0.000000
										CHANNELS 3 Xrotation Yrotation Zrotation
										JOINT RightHandMiddle3
										{
											OFFSET -3.691551 0.000000 0.000000
											CHANNELS 3 Xrotation Yrotation Zrotation
											End Site
											{
												OFFSET 1.082298 3.499527 0.457670
											}
										}
									}
								}
								JOINT RightHandRing1
								{
									OFFSET -13.966164 -0.268127 -3.067488
									CHANNELS 3 Xrotation Yrotation Zrotation
									JOINT RightHandRing2
									{
										OFFSET -3.162567 0.000000 0.000000
										CHANNELS 3 Xrotation Yrotation Zrotation
										JOINT RightHandRing3
										{
											OFFSET -3.324348 0.000000 0.000000
											CHANNELS 3 Xrotation Yrotation Zrotation
											End Site
											{
												OFFSET 0.861900 3.184998 0.405154
											}
										}
									}
								}
								JOINT RightHandPinky1
								{
									OFFSET -13.131393 -0.168503 -5.746925
									CHANNELS 3 Xrotation Yrotation Zrotation
									JOINT RightHandPinky2
									{
										OFFSET -2.849182 0.000000 0.000000
										CHANNELS 3 Xrotation Yrotation Zrotation
										JOINT RightHandPinky3
										{
											OFFSET -2.805038 0.000000 0.000000
											CHANNELS 3 Xrotation Yrotation Zrotation
											End Site
											{
												OFFSET 0.882500 2.642609 0.325652
											}
										}
									}
								}
							}
							JOINT Right_Sleeve
							{
								OFFSET -6.592125 -0.646545 0.805568
								CHANNELS 3 Xrotation Yrotation Zrotation
								End Site
								{
									OFFSET 0.000179 20.275787 -0.000000
								}
							}
						}
					}
				}
				JOINT Bind_Right_JacketString
				{
					OFFSET -3.534800 11.969597 7.200700
					CHANNELS 3 Xrotation Yrotation Zrotation
					JOINT Bind_Right_JacketString1
					{
						OFFSET -0.319900 -6.102600 2.794100
						CHANNELS 3 Xrotation Yrotation Zrotation
						End Site
						{
							OFFSET 0.000000 6.719452 0.000000
						}
					}
				}
				JOINT Bind_Left_JacketString
				{
					OFFSET 2.904800 11.969597 7.200700
					CHANNELS 3 Xrotation Yrotation Zrotation
					JOINT Bind_Left_JacketString1
					{
						OFFSET 0.364800 -5.904503 3.186800
						CHANNELS 3 Xrotation Yrotation Zrotation
						End Site
						{
							OFFSET 0.000000 6.719513 0.000000
						}
					}
				}
				JOINT HairE
				{
					OFFSET 5.915200 17.612701 -11.592200
					CHANNELS 3 Xrotation Yrotation Zrotation
					JOINT HairE1
					{
						OFFSET 0.289200 -7.171898 -1.284500
						CHANNELS 3 Xrotation Yrotation Zrotation
						End Site
						{
							OFFSET 0.000000 7.291756 0.000000
						}
					}
				}
				JOINT HairF
				{
					OFFSET -0.864800 17.612701 -11.592200
					CHANNELS 3 Xrotation Yrotation Zrotation
					JOINT HairF1
					{
						OFFSET 0.000000 -14.087097 -2.127501
						CHANNELS 3 Xrotation Yrotation Zrotation
						End Site
						{
							OFFSET 0.000000 14.246841 0.000000
						}
					}
				}
				JOINT HairG
				{
					OFFSET -8.087700 17.612701 -11.592200
					CHANNELS 3 Xrotation Yrotation Zrotation
					JOINT HairG1
					{
						OFFSET -0.293600 -6.081398 -0.910100
						CHANNELS 3 Xrotation Yrotation Zrotation
						End Site
						{
							OFFSET 0.000000 6.156120 0.000000
						}
					}
				}
			}
		}
	}
	JOINT Pouch
	{
		OFFSET 0.000000 4.394501 10.847300
		CHANNELS 3 Xrotation Yrotation Zrotation
		End Site
		{
			OFFSET 0.000000 21.880577 0.000000
		}
	}
	JOINT Bag
	{
		OFFSET -13.229000 4.813004 -0.593300
		CHANNELS 3 Xrotation Yrotation Zrotation
		End Site
		{
			OFFSET 0.000000 21.880577 0.000000
		}
	}
	JOINT OccupyGuyFacialAnim_Joint
	{
		OFFSET 1.000000 -70.206398 -1.655000
		CHANNELS 3 Xrotation Yrotation Zrotation
		End Site
		{
			OFFSET 0.000000 21.880577 0.000000
		}
	}
}
MOTION
Frames: 4
Frame Time: 0.033333
11.134258 96.678146 298.084717 -118.542946 68.237326 -86.904130 0.000002 0.000000 -0.000000 -9.787005 24.958123 32.487744 102.722329 -9.508445 -3.837764 23.623789 -16.837772 -4.949612 0.000002 -0.000000 -0.000001 0.000003 0.000001 -0.000000 -23.745400 -23.959482 -2.940751 101.449189 -10.286370 2.846299 28.312253 22.391561 -29.644182 -0.000001 0.000000 0.000000 0.000001 0.000001 -0.000002 0.000188 -8.996468 -0.873033 -3.011369 -12.120996 -8.083559 -2.809559 -11.808492 -8.627495 -18.406146 -6.168803 -3.672055 -41.973961 -34.517812 -10.742741 -0.000000 -0.000001 0.000001 -0.000000 -0.000001 0.000001 -0.000000 -0.000001 0.000000 -0.000000 -0.000001 -0.000001 -0.000000 -0.000001 -0.000001 -0.000000 -0.000001 -0.000001 -0.000000 -0.000001 -0.000001 -0.000000 -0.000001 0.000001 -0.000000 -0.000001 0.000001 3.291135 -5.272073 11.223334 -32.946732 -40.587877 1.820784 -0.000009 -34.826110 -0.000007 19.458256 -8.604208 11.220471 -1.509599 4.487996 -10.644579 15.531401 6.284425 30.390657 0.000002 -0.000001 0.000002 7.447166 11.355361 -49.253607 1.086860 3.400587 -35.440168 0.000000 0.000002 0.000002 5.526990 8.795258 -61.354415 2.747000 4.962228 -57.915018 0.000001 0.000003 -0.000001 3.923873 7.855121 -68.008453 3.233606 5.234785 -63.386471 -0.000002 -0.000002 -0.000001 0.652703 16.929309 -49.152637 4.395530 5.667748 -75.571563 -0.000000 0.000000 0.000001 0.000002 0.000001 -0.000000 -0.854509 -18.287541 -3.330213 -49.494495 9.552503 10.962356 -0.000035 69.468563 0.000037 13.057354 -24.187372 -26.220338 -1.095925 3.282061 -9.312194 15.506968 -18.274644 -12.116407 -0.000000 0.000000 0.000000 0.469875 -8.430150 3.797745 0.092787 -0.926149 11.445857 0.000001 0.000000 0.000002 0.368523 -4.080820 15.211250 0.524025 -2.148079 27.415514 -0.000000 0.000000 0.000003 -0.483936 -1.743480 20.914625 0.358693 -1.793932 22.611189 -0.000002 0.000001 -0.000005 -5.985010 -4.805456 12.977191 1.093235 -2.999858 40.038805 -0.000001 -0.000001 0.000000 0.000001 0.000001 0.000000 0.000000 -0.000003 0.000001 -0.000001 -0.000001 -0.000001 0.000000 -0.000003 -0.000000 0.000000 -0.000003 -0.000000 0.000000 -0.000003 0.000001 -0.000001 -0.000001 -0.000001 0.000000 -0.000003 -0.000000 0.000000 -0.000003 -0.000000 0.000000 -0.000003 0.000001 -0.000001 -0.000001 -0.000001 0.000002 0.000000 -0.000000 0.000002 0.000000 -0.000000 0.000002 0.000000 -0.000000 
12.773785 92.893494 299.422455 -122.575599 75.934683 -83.459195 -0.000000 -0.000000 0.000001 -11.498950 25.077012 31.856320 103.447805 -9.549877 -4.288509 25.455908 -17.940561 -6.911945 -0.000001 -0.000001 0.000000 -0.000001 -0.000001 -0.000000 -25.093965 -24.045942 -3.602264 100.332084 -10.326594 2.716047 25.398723 23.090233 -29.818256 0.000000 -0.000000 0.000000 -0.000001 0.000001 0.000001 -0.337201 -8.814611 -0.015663 -3.511536 -11.927324 -7.102464 -3.312487 -11.681819 -7.625860 -18.234343 -5.802526 -4.676792 -43.202073 -34.707319 -6.831477 0.000000 -0.000000 0.000002 0.000000 -0.000000 0.000002 0.000000 -0.000000 0.000002 0.000000 -0.000000 0.000002 0.000000 -0.000000 0.000002 0.000000 -0.000000 0.000002 0.000000 -0.000000 0.000002 0.000000 -0.000000 0.000002 0.000000 -0.000000 0.000002 2.564786 -7.990269 8.647101 -40.918608 -46.937002 2.002983 0.000008 -32.871621 0.000000 22.975583 -11.760335 15.091696 -0.330951 3.973995 -6.246891 15.211729 8.333924 25.894856 0.000001 0.000001 -0.000001 5.370768 10.495002 -41.666196 0.874289 3.080660 -31.681067 0.000002 0.000001 -0.000002 4.269299 8.394585 -53.671736 2.232371 4.600882 -51.747197 -0.000001 -0.000000 -0.000001 3.115132 7.493326 -59.313253 2.510380 4.806355 -55.136569 0.000002 0.000001 -0.000001 -0.738247 16.880785 -40.834395 3.654388 5.424394 -67.914251 -0.000002 -0.000002 -0.000001 -0.000000 0.000002 -0.000003 -1.851783 -13.817722 -3.265351 -42.441450 15.784726 2.696300 -0.000017 59.476536 0.000036 -2.978618 -23.252868 -34.935444 0.331878 3.825104 -10.027113 15.726562 -14.276787 -11.568120 -0.000000 0.000003 -0.000001 -0.169753 -5.492359 -3.850827 0.055612 -0.718329 8.853626 -0.000000 -0.000001 0.000002 0.076795 -2.839601 4.282784 0.337095 -1.741265 21.911580 0.000001 -0.000001 0.000001 -0.159236 -1.397951 9.370042 0.217748 -1.408785 17.571196 -0.000005 0.000000 -0.000002 -4.322319 -5.165134 2.450296 0.728277 -2.502569 32.446684 0.000001 -0.000000 0.000000 0.000000 0.000002 -0.000001 -0.000001 -0.000002 0.000000 -0.000002 0.000000 0.000000 -0.000001 -0.000002 -0.000002 -0.000001 -0.000002 -0.000002 -0.000001 -0.000002 0.000000 -0.000002 0.000000 0.000000 -0.000001 -0.000002 -0.000002 -0.000001 -0.000002 -0.000002 -0.000001 -0.000002 0.000000 -0.000002 0.000000 0.000000 -0.000000 -0.000000 0.000001 -0.000000 -0.000000 0.000001 -0.000000 -0.000000 0.000001 
14.637945 88.596451 300.789215 -132.589695 83.859007 -73.229955 0.000000 -0.000000 -0.000001 -12.985615 24.781764 30.898635 102.082853 -10.237585 -4.728057 24.615201 -18.585915 -1.921798 0.000000 -0.000002 -0.000002 -0.000001 0.000001 0.000000 -27.141278 -24.228419 -4.662860 98.415779 -9.502517 2.650105 19.480173 24.755052 -30.414221 -0.000000 -0.000000 -0.000000 0.000001 0.000001 0.000001 -0.322431 -8.798057 0.629238 -3.409052 -12.134672 -6.271633 -3.167681 -11.934185 -6.804990 -18.628304 -5.334086 -5.060371 -42.299078 -33.340588 -4.225506 -0.000000 0.000000 0.000001 -0.000000 0.000000 0.000001 -0.000000 0.000000 0.000002 -0.000000 0.000000 0.000001 -0.000000 0.000000 0.000001 -0.000000 0.000000 0.000001 -0.000000 0.000000 0.000001 -0.000000 0.000000 0.000001 -0.000000 0.000000 0.000001 2.021056 -10.282092 8.002259 -51.637589 -53.936846 -1.763189 -0.000017 -25.503361 -0.000006 28.693778 -14.409742 26.788721 0.138709 3.231619 -2.512366 14.711818 10.471856 22.734930 0.000000 -0.000001 0.000001 3.960510 9.484694 -36.271211 0.751375 2.872257 -29.314240 0.000002 -0.000002 0.000001 3.359947 7.894283 -48.576428 1.884151 4.304429 -47.264165 0.000003 -0.000001 -0.000001 2.570687 7.157891 -53.271709 2.031535 4.435695 -49.198211 -0.000002 0.000001 0.000002 -2.102384 16.795502 -35.286540 3.133009 5.183371 -62.278457 0.000002 -0.000001 0.000003 0.000001 -0.000001 0.000002 -2.470660 -9.653132 -3.704371 -35.677018 22.510955 -3.972935 0.000004 49.193717 -0.000018 -24.265087 -19.165210 -42.065076 0.973971 4.324823 -10.686659 12.985880 -8.937298 -7.579989 -0.000005 0.000001 0.000004 0.470189 -0.382628 -14.464527 0.020347 -0.435290 5.351553 -0.000003 -0.000000 0.000000 0.154432 -1.284490 -10.894095 0.138857 -1.130011 14.012387 0.000000 0.000002 -0.000001 0.068839 -1.830002 -6.836366 0.083024 -0.876383 10.823039 0.000002 -0.000000 -0.000001 -4.080201 -8.001550 -12.257610 0.319233 -1.696200 21.316204 -0.000000 0.000004 -0.000001 -0.000000 0.000000 0.000001 -0.000002 -0.000003 -0.000001 -0.000002 -0.000003 0.000000 -0.000002 -0.000003 -0.000002 -0.000002 -0.000003 -0.000002 -0.000002 -0.000003 -0.000001 -0.000002 -0.000003 0.000001 -0.000002 -0.000003 -0.000002 -0.000002 -0.000003 -0.000002 -0.000002 -0.000003 -0.000001 -0.000002 -0.000003 0.000001 0.000000 -0.000000 -0.000001 0.000000 -0.000000 -0.000001 0.000000 -0.000000 -0.000001 
16.482035 83.907845 302.116608 -83.340623 93.185787 -121.911459 -0.000000 0.000000 -0.000001 -14.953644 24.822794 29.857626 99.924670 -8.870745 -5.389581 25.102566 -19.956372 -5.290177 -0.000004 0.000000 -0.000000 0.000001 0.000001 -0.000000 -29.344494 -25.083540 -5.431142 95.732683 -8.890548 2.718173 11.789887 25.332581 -29.829898 -0.000002 0.000000 0.000000 0.000001 0.000000 -0.000001 0.150795 -8.812401 1.316536 -2.552990 -12.222081 -5.429100 -2.248073 -12.047283 -5.964500 -19.958019 -4.667072 -4.579619 -40.044088 -29.692687 -4.322293 0.000000 -0.000000 -0.000000 0.000000 -0.000000 -0.000000 0.000000 -0.000000 0.000001 0.000000 -0.000000 -0.000000 -0.000000 0.000000 -0.000000 0.000000 -0.000000 -0.000000 -0.000000 0.000000 -0.000000 0.000000 -0.000000 -0.000000 0.000000 -0.000000 -0.000000 1.983957 -11.703752 9.615627 -63.074652 -52.850378 -9.278106 0.000013 -28.176842 0.000001 30.246912 -13.465335 35.813400 -4.324442 3.236619 -0.333542 14.715890 11.457832 19.099891 -0.000000 0.000001 -0.000002 1.748348 6.870074 -27.712511 0.610449 2.605734 -26.365925 0.000001 0.000001 -0.000000 1.905443 6.692385 -39.316498 1.483353 3.897104 -41.663877 0.000001 0.000001 -0.000003 1.731071 6.448310 -43.142238 1.560083 3.981473 -42.780845 0.000001 0.000002 -0.000002 -3.516724 15.920315 -28.096582 2.496644 4.796785 -54.972467 0.000001 -0.000003 0.000001 -0.000000 -0.000002 0.000001 -2.445568 -5.667729 -4.745434 -31.846139 30.901699 -9.263126 -0.000005 37.600529 0.000041 -44.511288 -10.128199 -49.476702 -2.122925 5.016521 -12.086224 4.166864 -4.824414 0.667763 -0.000001 0.000001 0.000004 3.186760 5.562933 -22.438773 0.002787 -0.161192 1.979119 0.000001 -0.000001 0.000000 0.530504 -0.194532 -22.889854 0.024280 -0.475484 5.847166 0.000000 -0.000000 -0.000001 -0.632335 -3.319030 -20.187107 0.012697 -0.343995 4.226625 0.000002 0.000001 0.000004 -7.265882 -11.962546 -23.984208 0.062963 -0.764114 9.422920 -0.000001 -0.000000 -0.000001 0.000002 0.000000 0.000002 -0.000001 0.000000 0.000000 -0.000001 0.000003 0.000000 -0.000001 0.000000 -0.000001 -0.000001 0.000000 -0.000001 -0.000001 0.000000 0.000000 -0.000001 0.000003 0.000001 -0.000001 0.000000 -0.000001 -0.000001 0.000000 -0.000001 -0.000001 0.000000 0.000000 -0.000001 0.000003 0.000001 -0.000000 0.000000 -0.000001 -0.000000 0.000000 -0.000001 -0.000000 0.000000 -0.000001 
